HIERARCHY
ROOT Hips
{
	OFFSET 0.000000 0.000000 0.000000
	CHANNELS 6 Xposition Yposition Zposition Zrotation Yrotation Xrotation 
	JOINT LHipJoint
	{
		OFFSET 0.000000 0.000000 0.000000
		CHANNELS 3 Zrotation Yrotation Xrotation
		JOINT LeftUpLeg
		{
			OFFSET 1.363060 -1.794630 0.839290
			CHANNELS 3 Zrotation Yrotation Xrotation
			JOINT LeftLeg
			{
				OFFSET 2.448110 -6.726130 0.000000
				CHANNELS 3 Zrotation Yrotation Xrotation
				JOINT LeftFoot
				{
					OFFSET 2.562200 -7.039590 0.000000
					CHANNELS 3 Zrotation Yrotation Xrotation
					JOINT LeftToeBase
					{
						OFFSET 0.157640 -0.433110 2.322550
						CHANNELS 3 Zrotation Yrotation Xrotation
						End Site
						{
							OFFSET 0.000000 0.000000 0.000000
						}
					}
				}
			}
		}
	}
	JOINT RHipJoint
	{
		OFFSET 0.000000 0.000000 0.000000
		CHANNELS 3 Zrotation Yrotation Xrotation
		JOINT RightUpLeg
		{
			OFFSET -1.305520 -1.794630 0.839290
			CHANNELS 3 Zrotation Yrotation Xrotation
			JOINT RightLeg
			{
				OFFSET -2.542530 -6.985550 0.000000
				CHANNELS 3 Zrotation Yrotation Xrotation
				JOINT RightFoot
				{
					OFFSET -2.568260 -7.056230 0.000000
					CHANNELS 3 Zrotation Yrotation Xrotation
					JOINT RightToeBase
					{
						OFFSET -0.164730 -0.452590 2.363150
						CHANNELS 3 Zrotation Yrotation Xrotation
						End Site
						{
							OFFSET 0.000000 0.000000 0.000000
						}
					}
				}
			}
		}
	}
}
MOTION
Frames: 13
Frame Time: 0.008333
-1.698738 15.492566 -1.237462 23.244832 78.465342 46.889161 -12.181345 2.121525 -6.245894 -0.579442 16.455386 -19.957809 -1.311427 4.228392 55.399208 -0.248033 -8.245491 -0.723500 -0.593700 -0.000000 -75.922501 7.912097 1.906788 -4.722869 22.871698 -6.480940 -65.605479 1.537096 -5.377819 58.819549 -4.936574 -15.212050 -27.983839 -175.068299 0.000000 -20.723600
-1.527055 15.459449 -1.185417 21.726329 78.200842 44.926397 -12.203734 2.199327 -6.124733 -0.073269 15.585375 -19.319708 -1.090810 4.313361 56.429915 -0.191410 -8.051934 0.415467 -0.769400 0.000000 -73.867600 7.983728 1.957077 -4.936552 22.792233 -6.537610 -64.697753 1.409172 -5.413892 60.210732 -4.984761 -15.442272 -29.034483 -174.640900 0.000000 -20.443000
-1.356871 15.429918 -1.130909 20.464025 77.920832 43.279521 -12.208333 2.270473 -5.984550 0.269446 14.604536 -18.868539 -0.871713 4.396194 57.563679 -0.127776 -7.722372 1.409341 -0.906700 -0.000000 -71.162700 8.060904 1.989993 -5.118891 22.711220 -6.589525 -63.779744 1.310343 -5.435471 61.393886 -5.031496 -15.615940 -30.102757 -174.221800 -0.000000 -19.999200
-1.188313 15.403852 -1.073809 19.504620 77.620501 41.991164 -12.199402 2.333999 -5.833309 0.449338 13.564623 -18.606351 -0.658534 4.476202 58.791832 -0.060768 -7.274914 2.219603 -0.994500 -0.000001 -68.032100 8.143519 2.010358 -5.268522 22.604950 -6.639538 -62.868430 1.234159 -5.445962 62.400748 -5.077913 -15.746252 -31.172807 -173.814900 -0.000000 -19.542000
-1.021461 15.381176 -1.014340 18.837876 77.296930 41.051089 -12.182125 2.388221 -5.678119 0.481651 12.517931 -18.537481 -0.454547 4.553691 60.106488 0.006128 -6.730836 2.810012 -1.027300 -0.000001 -64.535300 8.229968 2.021208 -5.384362 22.463874 -6.684698 -61.979952 1.174751 -5.447556 63.257999 -5.124845 -15.848016 -32.221175 -173.425200 0.000000 -19.157000
-0.856580 15.361936 -0.952883 18.429656 76.945918 40.421548 -12.160189 2.431098 -5.526149 0.386952 11.512887 -18.657386 -0.261567 4.628250 61.485827 0.071370 -6.105218 3.177199 -1.008100 -0.000000 -61.054800 8.319451 2.025428 -5.468573 22.284391 -6.726518 -61.125618 1.127571 -5.442484 63.990517 -5.171520 -15.929532 -33.227494 -173.057700 0.000000 -18.928600
-0.693757 15.346287 -0.890077 18.192590 76.568129 40.018327 -12.137888 2.459810 -5.381737 0.198551 10.589916 -18.968143 -0.080332 4.700181 62.909892 0.134395 -5.412501 3.327941 -0.944099 -0.000000 -57.864000 8.408837 2.022730 -5.522387 22.081278 -6.759015 -60.316072 1.089639 -5.431534 64.611720 -5.217364 -15.998083 -34.168060 -172.717800 -0.000000 -18.864700
-0.533315 15.334291 -0.826290 18.096835 76.154667 39.800791 -12.114846 2.474113 -5.253237 -0.069288 9.780119 -19.447044 0.087673 4.769733 64.357402 0.194033 -4.665338 3.248589 -0.841800 0.000000 -54.712500 8.500360 2.016276 -5.553944 21.850484 -6.798844 -59.552285 1.059351 -5.417979 65.143479 -5.256706 -16.039088 -35.029098 -172.415700 -0.000000 -18.940300
-0.375378 15.326205 -0.762273 18.025179 75.711420 39.658241 -12.094440 2.470507 -5.140003 -0.376865 9.101263 -20.096169 0.243350 4.836428 65.796385 0.253524 -3.863746 2.997607 -0.715300 0.000000 -52.256500 8.588744 2.002654 -5.564746 21.623433 -6.835925 -58.838088 1.036800 -5.400829 65.583279 -5.288997 -16.051902 -35.796088 -172.156700 -0.000000 -19.096601
-0.220088 15.322118 -0.698419 17.923877 75.236935 39.532489 -12.076487 2.448206 -5.045176 -0.703516 8.562764 -20.899565 0.385921 4.900897 67.205249 0.313711 -3.013304 2.583289 -0.573400 0.000000 -50.274000 8.672965 1.981499 -5.561265 21.412934 -6.878065 -58.169202 1.023146 -5.381046 65.935735 -5.310071 -16.018484 -36.465794 -171.949000 0.000000 -19.264700
-0.067527 15.322084 -0.635014 17.748664 74.731623 39.376442 -12.060495 2.406523 -4.969124 -1.031374 8.163322 -21.841616 0.514989 4.963078 68.557616 0.376945 -2.113183 2.036491 -0.425601 0.000000 -48.776200 8.751301 1.951844 -5.548940 21.232675 -6.930511 -57.538495 1.020311 -5.358700 66.199924 -5.316741 -15.920880 -37.041261 -171.799399 -0.000000 -19.372500
0.082248 15.326044 -0.572148 17.473074 74.196981 39.159964 -12.045265 2.345196 -4.911068 -1.347927 7.893305 -22.906311 0.630042 5.023000 69.830785 0.445407 -1.163269 1.383945 -0.280300 -0.000000 -47.670500 8.822263 1.913020 -5.532692 21.092816 -6.997612 -56.936336 1.030474 -5.333521 66.373084 -5.306795 -15.742920 -37.532007 -171.712200 0.000001 -19.367700
0.229322 15.333872 -0.509761 17.088976 73.635456 38.871827 -12.029147 2.264416 -4.868934 -1.645494 7.736152 -24.078313 0.730607 5.080607 71.005827 0.521071 -0.164633 0.650303 -0.144701 -0.000000 -46.823900 8.884674 1.864763 -5.516397 20.999308 -7.081648 -56.351347 1.055549 -5.304785 66.451013 -5.279338 -15.473507 -37.950978 -171.688400 0.000000 -19.212100
